<svg width="130" height="43" viewBox="0 0 130 43" fill="none" xmlns="http://www.w3.org/2000/svg">
<g style="mix-blend-mode:darken">
<mask id="mask0_1572_28242" style="mask-type:alpha" maskUnits="userSpaceOnUse" x="0" y="0" width="130" height="43">
<rect y="0.000976562" width="130" height="42.1296" fill="#D9D9D9"/>
</mask>
<g mask="url(#mask0_1572_28242)">
<path d="M19.3355 22.1613C19.3102 21.0641 19.527 19.9742 19.9717 18.9636C20.8443 16.9694 22.4919 15.3827 24.5628 14.5424C25.6283 14.0996 26.7777 13.8748 27.9382 13.8825V17.3238C27.2697 17.3198 26.6077 17.4492 25.9937 17.7038C25.4009 17.9476 24.8605 18.296 24.4004 18.7309C23.9309 19.168 23.5606 19.6942 23.3131 20.2762C23.0501 20.8721 22.9171 21.5138 22.9223 22.1613V30.4329H19.3355V22.1613Z" fill="#009143"/>
<path d="M82.9757 30.4327H79.4002V22.1612C79.4006 21.5141 79.2678 20.8733 79.0094 20.276C78.7561 19.6975 78.3873 19.1724 77.9239 18.7308C77.4601 18.296 76.9167 17.9478 76.3212 17.7036C75.7073 17.4529 75.0473 17.3237 74.3805 17.3237C73.7137 17.3237 73.0538 17.4529 72.4399 17.7036C71.8456 17.947 71.3039 18.2953 70.8428 18.7308C70.3775 19.1698 70.0101 19.6956 69.763 20.276C69.4962 20.8711 69.3599 21.5129 69.3628 22.1612V30.4327H65.7873V22.1612C65.758 21.0634 65.9757 19.9726 66.4254 18.9634C66.8574 17.9795 67.4816 17.0847 68.2641 16.3275C69.0546 15.5702 69.9874 14.9644 71.0127 14.5423C72.0792 14.1068 73.2259 13.8823 74.3843 13.8823C75.5428 13.8823 76.6894 14.1068 77.7559 14.5423C78.7791 14.9661 79.7103 15.5718 80.5008 16.3275C81.2838 17.0842 81.9081 17.9792 82.3395 18.9634C82.7937 19.9712 83.0109 21.0631 82.9757 22.1612V30.4327Z" fill="#009143"/>
<path fill-rule="evenodd" clip-rule="evenodd" d="M17.0528 20.4707C16.9428 19.9275 16.7817 19.395 16.5714 18.88C16.2479 18.1504 15.8168 17.4696 15.2915 16.8584C14.7522 16.2427 14.1264 15.7024 13.432 15.2532C11.9912 14.3297 10.2979 13.8393 8.56716 13.8443C7.42395 13.8392 6.29182 14.0601 5.24085 14.4933C4.22226 14.9073 3.29655 15.5074 2.51487 16.2603C1.73174 17.0127 1.10452 17.9017 0.666716 18.88C0.217102 19.8944 -0.00978031 20.9875 0.000323198 22.0904V22.5522C0.00429547 22.7315 0.0270646 22.9099 0.068284 23.0848C0.176804 24.0955 0.485695 25.0768 0.978203 25.9753C1.45804 26.8571 2.09731 27.6494 2.866 28.315C3.63659 28.9775 4.52227 29.5043 5.48249 29.8711C6.81783 30.3684 8.26054 30.5383 9.68096 30.3656C10.0249 30.3237 10.3633 30.2476 10.6909 30.1384V30.1111C11.0818 29.9722 11.4094 29.705 11.6159 29.3566C11.8225 29.0081 11.8948 28.6006 11.8201 28.2059C11.7455 27.8111 11.5287 27.4543 11.2079 27.1983C10.887 26.9423 10.4827 26.8034 10.0661 26.8061C9.85452 26.8079 9.64495 26.8455 9.44687 26.917L9.25054 26.9461C9.04099 26.9552 8.81446 26.9552 8.56149 26.9552C7.90034 26.9611 7.24517 26.8342 6.63783 26.5825C6.0464 26.3337 5.50904 25.9797 5.05396 25.539C4.5887 25.0911 4.21869 24.56 3.9647 23.9756C3.7036 23.3791 3.57067 22.7378 3.57393 22.0904C3.57077 21.4478 3.70374 20.8113 3.9647 20.2198C4.48928 19.0673 5.44292 18.1457 6.63783 17.6365C7.24429 17.3814 7.8997 17.2519 8.56149 17.2566C9.41681 17.2491 10.2605 17.4479 11.0156 17.8347C11.7422 18.2083 12.3615 18.7491 12.8185 19.409C12.911 19.5599 12.9959 19.7017 13.0639 19.8235C13.1309 19.946 13.1871 20.0737 13.2319 20.2052C13.5003 20.8002 13.6391 21.4418 13.6397 22.0904V31.1273H13.7171V32.3853C13.7225 33.1182 13.5444 33.8416 13.1979 34.4941C12.8752 35.0978 12.4356 35.6364 11.9029 36.0812C10.64 37.101 7.59116 38.7408 3.32285 35.5794L1.16321 38.2936C3.7174 40.1788 6.10169 40.8623 8.18205 40.8623C10.5019 40.8433 12.7318 39.996 14.4401 38.4845C15.2739 37.7006 15.965 36.7874 16.4846 35.783C16.9806 34.7151 17.2329 33.557 17.2246 32.3872V22.1595C17.227 21.5924 17.1694 21.0265 17.0528 20.4707Z" fill="#009143"/>
<path fill-rule="evenodd" clip-rule="evenodd" d="M79.0987 15.8092C78.9458 15.3438 78.9099 14.4221 79.665 12.6641C81.8001 7.80483 86.3346 10.1645 89.4344 7.09766C89.0285 10.0681 87.5749 15.6855 83.4992 16.5254C81.4509 16.949 80.3295 16.7072 79.7745 16.4745L79.0987 15.8092Z" fill="#009143"/>
<path d="M37.2177 27.0002C37.8849 27.0024 38.5455 26.8725 39.1583 26.6184C39.734 26.3875 40.2539 26.0446 40.6856 25.6113C41.3668 24.9968 41.8571 24.2119 42.1014 23.3444H45.6996C45.618 24.0478 45.4271 24.7353 45.1332 25.3841C44.2669 27.3704 42.6259 28.95 40.5629 29.7834C38.9851 30.425 37.2446 30.5994 35.5634 30.2843C33.8823 29.9693 32.3367 29.1791 31.1239 28.0146C30.3401 27.2605 29.7156 26.3672 29.2851 25.3841C28.8407 24.3615 28.6118 23.264 28.6118 22.1554C28.6118 21.0469 28.8407 19.9494 29.2851 18.9268C30.1543 16.9409 31.7951 15.3608 33.8574 14.5238C35.9726 13.6748 38.35 13.663 40.4741 14.4911C41.4659 14.889 42.3752 15.4555 43.1586 16.1636L43.2247 16.229L45.5674 18.5487L40.5157 23.3371L35.9415 23.3207L40.661 18.5941C40.2054 18.2066 39.6828 17.8989 39.1168 17.6852C38.5163 17.4544 37.8755 17.3365 37.229 17.3379C36.5594 17.3344 35.8962 17.4638 35.2808 17.7179C34.0781 18.2179 33.1196 19.1422 32.602 20.3012C32.3392 20.8923 32.2037 21.5287 32.2037 22.1718C32.2037 22.8149 32.3392 23.4512 32.602 24.0424C33.1222 25.2014 34.0795 26.1272 35.2808 26.633C35.8964 26.8869 36.5594 27.0168 37.229 27.0147" fill="#009143"/>
<path d="M55.7195 26.9986C56.3867 27.0005 57.0472 26.8705 57.6602 26.6169C58.2346 26.3848 58.7536 26.042 59.1855 25.6097C59.8668 24.9953 60.357 24.2103 60.6014 23.3428H64.1976C64.1195 24.0456 63.9324 24.7331 63.6426 25.3825C62.7747 27.369 61.1324 28.9486 59.0685 29.7819C58.007 30.2078 56.8685 30.4272 55.7186 30.4272C54.5686 30.4272 53.4301 30.2078 52.3687 29.7819C50.3037 28.9501 48.6608 27.37 47.7945 25.3825C47.3484 24.3603 47.1187 23.2627 47.1187 22.1539C47.1187 21.0451 47.3484 19.9474 47.7945 18.9252C48.2241 17.942 48.8472 17.0481 49.6295 16.2929C50.4168 15.5397 51.3466 14.9387 52.3687 14.5222C54.481 13.6753 56.8547 13.6635 58.976 14.4895C59.967 14.8866 60.8752 15.4533 61.6566 16.162L61.7265 16.2274L64.0692 18.5471L59.0175 23.3355L54.4434 23.3192L59.1629 18.5925C58.7062 18.2054 58.183 17.8978 57.6168 17.6836C57.0163 17.4529 56.3755 17.3351 55.729 17.3364C55.0594 17.3332 54.3963 17.4625 53.7807 17.7163C53.185 17.9662 52.6428 18.3206 52.1818 18.7616C51.7272 19.2064 51.3612 19.7277 51.102 20.2996C50.8376 20.8904 50.7012 21.5269 50.7012 22.1702C50.7012 22.8135 50.8376 23.4501 51.102 24.0409C51.3598 24.6135 51.726 25.1351 52.1818 25.5788C52.641 26.0238 53.1835 26.3809 53.7807 26.6314C54.3964 26.8849 55.0593 27.0148 55.729 27.0132" fill="#009143"/>
<path d="M41.5856 3.82654C58.6569 3.82654 73.4667 9.39302 80.9065 17.5501C74.6202 8.13866 59.3932 1.49414 41.5856 1.49414C23.7779 1.49414 8.55096 8.13866 2.2627 17.5501C9.7044 9.39302 24.5161 3.82654 41.5856 3.82654Z" fill="#009143"/>
<path fill-rule="evenodd" clip-rule="evenodd" d="M109.653 22.1277C109.028 20.7095 107.856 19.5804 106.383 18.9791C105.623 18.6719 104.808 18.5137 103.984 18.5137C103.16 18.5137 102.344 18.6719 101.584 18.9791C100.468 19.4314 99.5159 20.1916 98.8474 21.1641C98.1789 22.1365 97.8241 23.2776 97.8277 24.4438C97.8256 25.2292 97.9901 26.0068 98.311 26.7289C98.6195 27.4327 99.0685 28.0713 99.6324 28.6086C100.195 29.1523 100.859 29.5884 101.59 29.8939C102.348 30.209 103.166 30.3687 103.991 30.3629C104.244 30.3625 104.497 30.3431 104.746 30.3048C104.914 30.2775 105.065 30.2575 105.224 30.2339C105.561 30.2273 105.881 30.0924 106.114 29.8587C106.347 29.625 106.474 29.3117 106.467 28.9877C106.46 28.6637 106.32 28.3555 106.078 28.131C105.835 27.9065 105.51 27.7841 105.173 27.7906C105.075 27.7889 104.977 27.8011 104.882 27.8269V27.8124C104.735 27.8378 104.594 27.8596 104.456 27.8796C104.318 27.8996 104.159 27.9033 104.001 27.9033C103.522 27.9082 103.049 27.814 102.611 27.627C102.182 27.4528 101.792 27.1982 101.465 26.878C101.131 26.5707 100.867 26.1991 100.691 25.7872C100.498 25.3671 100.4 24.9123 100.403 24.4529C100.397 23.9802 100.495 23.5118 100.691 23.0785C100.863 22.6565 101.127 22.2751 101.465 21.9605C101.792 21.6413 102.182 21.3885 102.611 21.2169C103.048 21.0285 103.522 20.9336 104.001 20.9388C104.479 20.9357 104.953 21.0305 105.39 21.2169C105.821 21.3904 106.211 21.6442 106.54 21.9637C106.868 22.2832 107.127 22.6621 107.303 23.0785C107.499 23.5117 107.598 23.9801 107.593 24.4529V30.372H110.157V24.4438C110.161 23.6476 109.994 22.8593 109.668 22.1277" fill="#6FBA2C"/>
<path fill-rule="evenodd" clip-rule="evenodd" d="M115.159 18.9901C114.426 19.2927 113.759 19.7243 113.192 20.2626C112.636 20.8084 112.188 21.4473 111.87 22.1478C111.553 22.8733 111.399 23.6551 111.417 24.442V29.125H111.426C111.426 29.125 111.417 29.125 111.417 29.1414C111.417 29.4659 111.551 29.7771 111.789 30.0065C112.027 30.2359 112.351 30.3648 112.687 30.3648C113.024 30.3648 113.348 30.2359 113.586 30.0065C113.824 29.7771 113.958 29.4659 113.958 29.1414V29.125H113.981V24.442C113.976 23.9773 114.072 23.5168 114.262 23.0895C114.441 22.6744 114.706 22.2989 115.042 21.986C115.371 21.6806 115.755 21.4344 116.174 21.2589C116.613 21.0749 117.087 20.9814 117.566 20.9844V18.5138C116.737 18.5086 115.917 18.6709 115.159 18.9901Z" fill="#6FBA2C"/>
<path fill-rule="evenodd" clip-rule="evenodd" d="M93.8962 27.6551C93.457 27.8248 92.9875 27.91 92.5143 27.906C92.0373 27.91 91.5649 27.8158 91.1287 27.6297C90.7028 27.4557 90.3176 27.201 89.996 26.8807C89.6591 26.5738 89.3928 26.2022 89.2145 25.7899C89.024 25.3685 88.9269 24.9134 88.9294 24.4538C88.9263 23.9888 89.0234 23.5282 89.2145 23.1012C89.39 22.6806 89.6564 22.3007 89.996 21.9868C90.3181 21.6676 90.7032 21.4136 91.1287 21.2397C91.5654 21.0556 92.0376 20.9626 92.5143 20.967C92.9881 20.9591 93.4584 21.0451 93.8962 21.2197C94.264 21.3677 94.6045 21.5721 94.9043 21.825C95.0733 22.0158 95.299 22.1519 95.551 22.2151C95.803 22.2782 96.069 22.2652 96.3131 22.178C96.5572 22.0907 96.7675 21.9333 96.9157 21.7271C97.0638 21.5209 97.1426 21.2759 97.1413 21.0251C97.1414 20.7248 97.0242 20.4353 96.8129 20.2144L96.8525 20.1853L96.8015 20.1344C96.2483 19.618 95.5971 19.2088 94.8835 18.9291C94.1309 18.6364 93.326 18.4882 92.5143 18.4928C91.7102 18.4901 90.9136 18.6414 90.1708 18.9379C89.428 19.2344 88.7538 19.6701 88.1875 20.2198C87.6216 20.7637 87.1698 21.4075 86.8566 22.1159C86.5327 22.8482 86.3657 23.636 86.3657 24.4319C86.3657 25.2279 86.5327 26.0157 86.8566 26.748C87.173 27.452 87.6245 28.0922 88.1875 28.635C89.3366 29.7377 90.8921 30.3579 92.5143 30.3602C93.3264 30.3671 94.1318 30.2182 94.8835 29.9221C95.5971 29.6465 96.2485 29.2402 96.8015 28.7259L96.8525 28.6768L95.0025 26.9716C94.6739 27.2534 94.3004 27.4823 93.8962 27.6497" fill="#6FBA2C"/>
<path fill-rule="evenodd" clip-rule="evenodd" d="M127.841 13.3657L129.997 15.4054V24.4423C130.004 25.2352 129.842 26.021 129.521 26.7511C129.208 27.4549 128.76 28.0953 128.199 28.6381C127.633 29.1761 126.964 29.6044 126.23 29.8997C125.465 30.2107 124.643 30.3684 123.812 30.3633C122.185 30.3621 120.625 29.742 119.47 28.6381C118.908 28.0965 118.46 27.4559 118.149 26.7511C117.824 26.0217 117.658 25.2359 117.662 24.4423V24.0788C117.665 23.9562 117.681 23.8343 117.711 23.7152C117.794 22.9986 118.018 22.3038 118.371 21.6682C118.714 21.0368 119.172 20.4702 119.723 19.9957C120.275 19.5196 120.909 19.1411 121.598 18.8777C122.305 18.6096 123.058 18.4739 123.818 18.4777C124.079 18.4761 124.34 18.495 124.597 18.5341C124.852 18.5759 125.086 18.6123 125.322 18.645C125.627 18.7103 125.897 18.8817 126.079 19.1264C126.261 19.3711 126.342 19.6719 126.308 19.971C126.274 20.2702 126.126 20.5467 125.894 20.7475C125.661 20.9483 125.359 21.0593 125.047 21.0592C124.94 21.0593 124.833 21.0452 124.73 21.0174V21.0301C124.565 21.001 124.416 20.9756 124.275 20.9574C124.123 20.9422 123.97 20.9349 123.818 20.9356C123.342 20.9293 122.869 21.0223 122.434 21.2082C122.004 21.3824 121.614 21.6363 121.286 21.9554C120.958 22.2769 120.695 22.6549 120.512 23.0698C120.323 23.4972 120.226 23.9576 120.229 24.4223C120.227 24.8818 120.323 25.3367 120.512 25.7585C120.698 26.165 120.961 26.5348 121.286 26.8493C121.614 27.1695 122.004 27.4241 122.434 27.5983C122.869 27.7845 123.341 27.8788 123.818 27.8746C124.301 27.8774 124.78 27.7833 125.224 27.5983C125.658 27.423 126.053 27.1687 126.387 26.8493C126.712 26.5347 126.973 26.1648 127.157 25.7585C127.346 25.3365 127.441 24.8816 127.439 24.4223V13.7657L127.841 13.3657Z" fill="#6FBA2C"/>
</g>
</g>
</svg>
